<?xml version="1.0" encoding="UTF-8" standalone="no" ?>
<!DOCTYPE svg PUBLIC "-//W3C//DTD SVG 1.1//EN" "http://www.w3.org/Graphics/SVG/1.1/DTD/svg11.dtd">
<svg xmlns="http://www.w3.org/2000/svg" xmlns:xlink="http://www.w3.org/1999/xlink" version="1.1" width="1080" height="1080" viewBox="0 0 1080 1080" xml:space="preserve">
<desc>Created with Fabric.js 5.2.4</desc>
<defs>
</defs>
<g transform="matrix(1 0 0 1 540 540)" id="34301b91-8b89-466c-82e4-22b744ec56b2"  >
<rect style="stroke: none; stroke-width: 1; stroke-dasharray: none; stroke-linecap: butt; stroke-dashoffset: 0; stroke-linejoin: miter; stroke-miterlimit: 4; fill: rgb(255,255,255); fill-rule: nonzero; opacity: 1; visibility: hidden;" vector-effect="non-scaling-stroke"  x="-540" y="-540" rx="0" ry="0" width="1080" height="1080" />
</g>
<g transform="matrix(1 0 0 1 540 540)" id="acebe7bc-e093-436f-aa03-bd5329e22b68"  >
</g>
<g transform="matrix(14.73 0 0 14.73 555.98 576.72)"  >
<path style="stroke: rgb(0,0,0); stroke-width: 0; stroke-dasharray: none; stroke-linecap: butt; stroke-dashoffset: 0; stroke-linejoin: miter; stroke-miterlimit: 4; fill: rgb(93,82,55); fill-rule: nonzero; opacity: 1;" vector-effect="non-scaling-stroke"  transform=" translate(-12, -11.7)" d="M 12 0 C 5.374 0 0 5.373 0 12 C 0 17.302 3.438 21.8 8.207 23.387 C 8.806000000000001 23.498 9 23.126 9 22.810000000000002 L 9 20.576 C 5.662 21.302 4.967 19.16 4.967 19.16 C 4.420999999999999 17.773 3.6339999999999995 17.404 3.6339999999999995 17.404 C 2.5449999999999995 16.659 3.7169999999999996 16.675 3.7169999999999996 16.675 C 4.922 16.759 5.555999999999999 17.912 5.555999999999999 17.912 C 6.6259999999999994 19.746 8.363 19.215999999999998 9.047999999999998 18.909 C 9.154999999999998 18.134 9.465999999999998 17.604 9.809999999999999 17.305 C 7.144999999999999 17 4.342999999999999 15.971 4.342999999999999 11.373999999999999 C 4.342999999999999 10.062999999999999 4.811999999999999 8.992999999999999 5.578999999999999 8.152999999999999 C 5.454999999999999 7.849999999999999 5.043999999999999 6.628999999999999 5.695999999999999 4.9769999999999985 C 5.695999999999999 4.9769999999999985 6.703999999999999 4.6549999999999985 8.997 6.206999999999999 C 9.954 5.940999999999999 10.98 5.807999999999999 12 5.802999999999999 C 13.02 5.807999999999999 14.047 5.940999999999999 15.006 6.206999999999999 C 17.297 4.654999999999999 18.303 4.9769999999999985 18.303 4.9769999999999985 C 18.956 6.629999999999999 18.545 7.850999999999999 18.421 8.152999999999999 C 19.191 8.992999999999999 19.656 10.063999999999998 19.656 11.373999999999999 C 19.656 15.982999999999999 16.849 16.997999999999998 14.177 17.294999999999998 C 14.607 17.666999999999998 15 18.397 15 19.517 L 15 22.81 C 15 23.128999999999998 15.192 23.503999999999998 15.801 23.386 C 20.566 21.797 24 17.299999999999997 24 12 C 24 5.373 18.627 0 12 0 z" stroke-linecap="round" />
</g>
<g transform="matrix(0 0 0 0 0 0)"  >
<g style=""   >
</g>
</g>
<g transform="matrix(NaN NaN NaN NaN 0 0)"  >
<g style=""   >
</g>
</g>
</svg>